<svg width="746" height="553" viewBox="0 0 746 553" fill="none" xmlns="http://www.w3.org/2000/svg">
<path d="M8.58231 364.664C7.26195 364.664 5.9416 363.902 4.80987 363.235C3.01796 362.282 1.88622 361.711 0.94311 362.282L0 360.853C1.88622 359.615 3.86675 360.758 5.56434 361.711C7.35625 362.663 8.48799 363.235 9.4311 362.663C10.3742 361.997 10.3742 360.758 10.0913 358.758C9.90264 356.757 9.71402 354.471 11.5059 353.232C13.3921 351.994 15.3727 353.137 17.0703 354.09C18.8622 355.042 19.9939 355.614 20.937 355.042C21.8801 354.375 21.8801 353.137 21.5972 351.136C21.4086 349.136 21.22 346.85 23.0119 345.611C24.8981 344.373 26.8786 345.516 28.5762 346.468C30.3681 347.421 31.4999 347.993 32.443 347.421C33.3861 346.754 33.3861 345.516 33.1032 343.515C32.9145 341.515 32.7259 339.228 34.5178 337.99C36.4041 336.752 38.3845 337.895 40.0821 338.847C41.8741 339.8 43.0058 340.372 43.9489 339.8C44.892 339.133 44.8921 337.895 44.6091 335.894C44.4205 333.894 44.2319 331.607 46.0238 330.369C47.91 329.13 49.8905 330.274 51.5881 331.226C53.38 332.179 54.5118 332.75 55.4549 332.179C56.398 331.512 56.398 330.274 56.2094 328.273C56.0207 326.272 55.8321 323.986 57.624 322.748L58.5671 324.177C57.624 324.843 57.624 326.082 57.8127 328.082C58.0013 330.083 58.1899 332.369 56.398 333.608C54.5118 334.846 52.5312 333.703 50.8336 332.75C49.0417 331.798 47.91 331.226 46.9669 331.798C46.0238 332.465 46.0238 333.703 46.3067 335.704C46.4953 337.704 46.684 339.991 44.892 341.229C43.0058 342.467 41.0253 341.324 39.3277 340.372C37.5358 339.419 36.4041 338.847 35.4609 339.419C34.5178 340.086 34.5178 341.324 34.8008 343.325C34.9894 345.325 35.178 347.612 33.3861 348.85C31.4999 350.089 29.5193 348.945 27.8217 347.993C26.0298 347.04 24.8981 346.468 23.955 347.04C23.0119 347.707 23.0119 348.945 23.2948 350.946C23.4834 352.946 23.672 355.233 21.8801 356.471C19.9939 357.71 18.0134 356.567 16.3158 355.614C14.5239 354.661 13.3921 354.09 12.449 354.661C11.5059 355.328 11.5059 356.567 11.7889 358.567C11.9775 360.568 12.1661 362.854 10.3742 364.092C9.71403 364.473 9.14817 364.664 8.58231 364.664Z" fill="white"/>
<path d="M503.715 63.6288C502.395 63.6288 501.074 62.8667 499.943 62.1998C498.151 61.2472 497.019 60.6756 496.076 61.2472L495.133 59.8182C497.019 58.5798 498.999 59.723 500.697 60.6756C502.489 61.6283 503.621 62.1998 504.564 61.6283C505.507 60.9614 505.507 59.723 505.224 57.7224C505.035 55.7219 504.847 53.4355 506.639 52.1971C508.525 50.9587 510.505 52.1018 512.203 53.0545C513.995 54.0071 515.127 54.5787 516.07 54.0071C517.013 53.3403 517.013 52.1018 516.73 50.1013C516.541 48.1007 516.353 45.8144 518.145 44.576C520.031 43.3375 522.011 44.4807 523.709 45.4333C525.501 46.386 526.633 46.9576 527.576 46.386C528.519 45.7191 528.519 44.4807 528.236 42.4802C528.047 40.4796 527.859 38.1932 529.651 36.9548C531.537 35.7164 533.517 36.8595 535.215 37.8122C537.007 38.7648 538.139 39.3364 539.082 38.7648C540.025 38.098 540.025 36.8596 539.742 34.859C539.553 32.8585 539.365 30.5721 541.157 29.3337C543.043 28.0952 545.023 29.2384 546.721 30.191C548.513 31.1437 549.645 31.7153 550.588 31.1437C551.531 30.4768 551.531 29.2384 551.342 27.2379C551.153 25.2373 550.965 22.951 552.757 21.7125L553.7 23.1415C552.757 23.8083 552.757 25.0468 552.945 27.0473C553.134 29.0479 553.323 31.3342 551.531 32.5726C549.645 33.8111 547.664 32.6679 545.966 31.7153C544.174 30.7626 543.043 30.191 542.1 30.7626C541.157 31.4295 541.157 32.6679 541.439 34.6685C541.628 36.669 541.817 38.9554 540.025 40.1938C538.139 41.4322 536.158 40.2891 534.46 39.3364C532.669 38.3838 531.537 37.8122 530.594 38.3838C529.651 39.0506 529.651 40.2891 529.934 42.2896C530.122 44.2902 530.311 46.5765 528.519 47.8149C526.633 49.0534 524.652 47.9102 522.954 46.9576C521.163 46.0049 520.031 45.4333 519.088 46.0049C518.145 46.6718 518.145 47.9102 518.428 49.9108C518.616 51.9113 518.805 54.1976 517.013 55.4361C515.127 56.6745 513.146 55.5313 511.449 54.5787C509.657 53.6261 508.525 53.0545 507.582 53.6261C506.639 54.2929 506.639 55.5314 506.922 57.5319C507.11 59.5325 507.299 61.8188 505.507 63.0572C504.847 63.4383 504.281 63.6288 503.715 63.6288Z" fill="white"/>
<path d="M533.895 319.89C532.574 319.89 531.254 319.128 530.122 318.461C528.33 317.508 527.198 316.936 526.255 317.508L525.312 316.079C527.198 314.841 529.179 315.984 530.877 316.936C532.669 317.889 533.8 318.461 534.743 317.889C535.686 317.222 535.686 315.984 535.404 313.983C535.215 311.983 535.026 309.696 536.818 308.458C538.704 307.22 540.685 308.363 542.383 309.315C544.174 310.268 545.306 310.84 546.249 310.268C547.192 309.601 547.192 308.363 546.909 306.362C546.721 304.362 546.532 302.075 548.324 300.837C550.21 299.598 552.191 300.742 553.888 301.694C555.68 302.647 556.812 303.218 557.755 302.647C558.698 301.98 558.698 300.742 558.415 298.741C558.227 296.74 558.038 294.454 559.83 293.216C561.716 291.977 563.697 293.12 565.394 294.073C567.186 295.026 568.318 295.597 569.261 295.026C570.204 294.359 570.204 293.12 569.921 291.12C569.733 289.119 569.544 286.833 571.336 285.595C573.222 284.356 575.203 285.499 576.9 286.452C578.692 287.405 579.824 287.976 580.767 287.405C581.71 286.738 581.71 285.499 581.522 283.499C581.333 281.498 581.144 279.212 582.936 277.973L583.879 279.402C582.936 280.069 582.936 281.308 583.125 283.308C583.314 285.309 583.502 287.595 581.71 288.834C579.824 290.072 577.843 288.929 576.146 287.976C574.354 287.023 573.222 286.452 572.279 287.023C571.336 287.69 571.336 288.929 571.619 290.929C571.808 292.93 571.996 295.216 570.204 296.455C568.318 297.693 566.338 296.55 564.64 295.597C562.848 294.645 561.716 294.073 560.773 294.645C559.83 295.311 559.83 296.55 560.113 298.55C560.302 300.551 560.49 302.837 558.698 304.076C556.812 305.314 554.832 304.171 553.134 303.218C551.342 302.266 550.21 301.694 549.267 302.266C548.324 302.933 548.324 304.171 548.607 306.172C548.796 308.172 548.984 310.459 547.192 311.697C545.306 312.935 543.326 311.792 541.628 310.84C539.836 309.887 538.704 309.315 537.761 309.887C536.818 310.554 536.818 311.792 537.101 313.793C537.29 315.793 537.478 318.08 535.686 319.318C535.026 319.699 534.46 319.89 533.895 319.89Z" fill="white"/>
<path d="M687.455 19.3142C687.841 19.3142 688.154 18.9981 688.154 18.6081C688.154 18.2181 687.841 17.902 687.455 17.902C687.069 17.902 686.756 18.2181 686.756 18.6081C686.756 18.9981 687.069 19.3142 687.455 19.3142Z" fill="#8643DC"/>
<path d="M683.96 22.8448C684.346 22.8448 684.659 22.5287 684.659 22.1387C684.659 21.7487 684.346 21.4326 683.96 21.4326C683.574 21.4326 683.261 21.7487 683.261 22.1387C683.261 22.5287 683.574 22.8448 683.96 22.8448Z" fill="#8643DC"/>
<path d="M680.29 26.3753C680.676 26.3753 680.989 26.0592 680.989 25.6692C680.989 25.2793 680.676 24.9631 680.29 24.9631C679.904 24.9631 679.591 25.2793 679.591 25.6692C679.591 26.0592 679.904 26.3753 680.29 26.3753Z" fill="#8643DC"/>
<path d="M676.794 29.9059C677.18 29.9059 677.493 29.5897 677.493 29.1998C677.493 28.8098 677.18 28.4937 676.794 28.4937C676.408 28.4937 676.095 28.8098 676.095 29.1998C676.095 29.5897 676.408 29.9059 676.794 29.9059Z" fill="#8643DC"/>
<path d="M673.124 33.613C673.51 33.613 673.823 33.2969 673.823 32.9069C673.823 32.5169 673.51 32.2008 673.124 32.2008C672.738 32.2008 672.425 32.5169 672.425 32.9069C672.425 33.2969 672.738 33.613 673.124 33.613Z" fill="#8643DC"/>
<path d="M669.629 37.1435C670.015 37.1435 670.328 36.8274 670.328 36.4374C670.328 36.0474 670.015 35.7313 669.629 35.7313C669.243 35.7313 668.93 36.0474 668.93 36.4374C668.93 36.8274 669.243 37.1435 669.629 37.1435Z" fill="#8643DC"/>
<path d="M665.959 40.6743C666.345 40.6743 666.658 40.3582 666.658 39.9682C666.658 39.5782 666.345 39.2621 665.959 39.2621C665.573 39.2621 665.26 39.5782 665.26 39.9682C665.26 40.3582 665.573 40.6743 665.959 40.6743Z" fill="#8643DC"/>
<path d="M662.464 44.2048C662.85 44.2048 663.163 43.8887 663.163 43.4987C663.163 43.1087 662.85 42.7926 662.464 42.7926C662.078 42.7926 661.765 43.1087 661.765 43.4987C661.765 43.8887 662.078 44.2048 662.464 44.2048Z" fill="#8643DC"/>
<path d="M658.794 47.7354C659.18 47.7354 659.493 47.4193 659.493 47.0293C659.493 46.6394 659.18 46.3232 658.794 46.3232C658.408 46.3232 658.095 46.6394 658.095 47.0293C658.095 47.4193 658.408 47.7354 658.794 47.7354Z" fill="#8643DC"/>
<path d="M655.299 51.266C655.685 51.266 655.998 50.9498 655.998 50.5599C655.998 50.1699 655.685 49.8538 655.299 49.8538C654.913 49.8538 654.6 50.1699 654.6 50.5599C654.6 50.9498 654.913 51.266 655.299 51.266Z" fill="#8643DC"/>
<path d="M651.629 54.7965C652.015 54.7965 652.328 54.4804 652.328 54.0904C652.328 53.7004 652.015 53.3843 651.629 53.3843C651.243 53.3843 650.93 53.7004 650.93 54.0904C650.93 54.4804 651.243 54.7965 651.629 54.7965Z" fill="#8643DC"/>
<path d="M648.134 58.327C648.52 58.327 648.833 58.0109 648.833 57.6209C648.833 57.2309 648.52 56.9148 648.134 56.9148C647.747 56.9148 647.435 57.2309 647.435 57.6209C647.435 58.0109 647.747 58.327 648.134 58.327Z" fill="#8643DC"/>
<path d="M644.463 61.8575C644.85 61.8575 645.162 61.5414 645.162 61.1514C645.162 60.7614 644.85 60.4453 644.463 60.4453C644.077 60.4453 643.764 60.7614 643.764 61.1514C643.764 61.5414 644.077 61.8575 644.463 61.8575Z" fill="#8643DC"/>
<path d="M640.968 65.3882C641.354 65.3882 641.667 65.072 641.667 64.6821C641.667 64.2921 641.354 63.976 640.968 63.976C640.582 63.976 640.269 64.2921 640.269 64.6821C640.269 65.072 640.582 65.3882 640.968 65.3882Z" fill="#8643DC"/>
<path d="M637.298 68.9187C637.684 68.9187 637.997 68.6025 637.997 68.2126C637.997 67.8226 637.684 67.5065 637.298 67.5065C636.912 67.5065 636.599 67.8226 636.599 68.2126C636.599 68.6025 636.912 68.9187 637.298 68.9187Z" fill="#8643DC"/>
<path d="M691.649 23.5509C692.035 23.5509 692.348 23.2347 692.348 22.8448C692.348 22.4548 692.035 22.1387 691.649 22.1387C691.263 22.1387 690.95 22.4548 690.95 22.8448C690.95 23.2347 691.263 23.5509 691.649 23.5509Z" fill="#8643DC"/>
<path d="M688.154 27.0814C688.54 27.0814 688.853 26.7653 688.853 26.3753C688.853 25.9853 688.54 25.6692 688.154 25.6692C687.768 25.6692 687.455 25.9853 687.455 26.3753C687.455 26.7653 687.768 27.0814 688.154 27.0814Z" fill="#8643DC"/>
<path d="M684.484 30.7884C684.87 30.7884 685.183 30.4723 685.183 30.0823C685.183 29.6923 684.87 29.3762 684.484 29.3762C684.098 29.3762 683.785 29.6923 683.785 30.0823C683.785 30.4723 684.098 30.7884 684.484 30.7884Z" fill="#8643DC"/>
<path d="M680.814 34.3189C681.2 34.3189 681.513 34.0028 681.513 33.6128C681.513 33.2229 681.2 32.9067 680.814 32.9067C680.428 32.9067 680.115 33.2229 680.115 33.6128C680.115 34.0028 680.428 34.3189 680.814 34.3189Z" fill="#8643DC"/>
<path d="M677.319 37.8495C677.705 37.8495 678.018 37.5333 678.018 37.1434C678.018 36.7534 677.705 36.4373 677.319 36.4373C676.933 36.4373 676.62 36.7534 676.62 37.1434C676.62 37.5333 676.933 37.8495 677.319 37.8495Z" fill="#8643DC"/>
<path d="M673.649 41.3801C674.035 41.3801 674.348 41.064 674.348 40.674C674.348 40.284 674.035 39.9679 673.649 39.9679C673.263 39.9679 672.95 40.284 672.95 40.674C672.95 41.064 673.263 41.3801 673.649 41.3801Z" fill="#8643DC"/>
<path d="M670.153 44.9109C670.54 44.9109 670.853 44.5947 670.853 44.2048C670.853 43.8148 670.54 43.4987 670.153 43.4987C669.767 43.4987 669.454 43.8148 669.454 44.2048C669.454 44.5947 669.767 44.9109 670.153 44.9109Z" fill="#8643DC"/>
<path d="M666.483 48.4414C666.869 48.4414 667.182 48.1253 667.182 47.7353C667.182 47.3453 666.869 47.0292 666.483 47.0292C666.097 47.0292 665.784 47.3453 665.784 47.7353C665.784 48.1253 666.097 48.4414 666.483 48.4414Z" fill="#8643DC"/>
<path d="M662.988 51.9719C663.374 51.9719 663.687 51.6558 663.687 51.2658C663.687 50.8758 663.374 50.5597 662.988 50.5597C662.602 50.5597 662.289 50.8758 662.289 51.2658C662.289 51.6558 662.602 51.9719 662.988 51.9719Z" fill="#8643DC"/>
<path d="M659.318 55.5024C659.704 55.5024 660.017 55.1863 660.017 54.7963C660.017 54.4063 659.704 54.0902 659.318 54.0902C658.932 54.0902 658.619 54.4063 658.619 54.7963C658.619 55.1863 658.932 55.5024 659.318 55.5024Z" fill="#8643DC"/>
<path d="M655.823 59.0331C656.209 59.0331 656.522 58.7169 656.522 58.327C656.522 57.937 656.209 57.6208 655.823 57.6208C655.437 57.6208 655.124 57.937 655.124 58.327C655.124 58.7169 655.437 59.0331 655.823 59.0331Z" fill="#8643DC"/>
<path d="M652.153 62.5636C652.539 62.5636 652.852 62.2474 652.852 61.8575C652.852 61.4675 652.539 61.1514 652.153 61.1514C651.767 61.1514 651.454 61.4675 651.454 61.8575C651.454 62.2474 651.767 62.5636 652.153 62.5636Z" fill="#8643DC"/>
<path d="M648.658 66.0941C649.044 66.0941 649.357 65.778 649.357 65.388C649.357 64.998 649.044 64.6819 648.658 64.6819C648.272 64.6819 647.959 64.998 647.959 65.388C647.959 65.778 648.272 66.0941 648.658 66.0941Z" fill="#8643DC"/>
<path d="M644.988 69.6246C645.374 69.6246 645.687 69.3085 645.687 68.9185C645.687 68.5285 645.374 68.2124 644.988 68.2124C644.602 68.2124 644.289 68.5285 644.289 68.9185C644.289 69.3085 644.602 69.6246 644.988 69.6246Z" fill="#8643DC"/>
<path d="M641.492 73.1552C641.878 73.1552 642.191 72.8391 642.191 72.4491C642.191 72.0592 641.878 71.743 641.492 71.743C641.106 71.743 640.793 72.0592 640.793 72.4491C640.793 72.8391 641.106 73.1552 641.492 73.1552Z" fill="#8643DC"/>
<path d="M695.844 27.9641C696.23 27.9641 696.543 27.648 696.543 27.258C696.543 26.868 696.23 26.5519 695.844 26.5519C695.458 26.5519 695.145 26.868 695.145 27.258C695.145 27.648 695.458 27.9641 695.844 27.9641Z" fill="#8643DC"/>
<path d="M692.174 31.4946C692.56 31.4946 692.873 31.1785 692.873 30.7885C692.873 30.3985 692.56 30.0824 692.174 30.0824C691.788 30.0824 691.475 30.3985 691.475 30.7885C691.475 31.1785 691.788 31.4946 692.174 31.4946Z" fill="#8643DC"/>
<path d="M688.678 35.0252C689.064 35.0252 689.377 34.7091 689.377 34.3191C689.377 33.9292 689.064 33.613 688.678 33.613C688.292 33.613 687.979 33.9292 687.979 34.3191C687.979 34.7091 688.292 35.0252 688.678 35.0252Z" fill="#8643DC"/>
<path d="M685.008 38.5558C685.394 38.5558 685.707 38.2396 685.707 37.8497C685.707 37.4597 685.394 37.1436 685.008 37.1436C684.622 37.1436 684.309 37.4597 684.309 37.8497C684.309 38.2396 684.622 38.5558 685.008 38.5558Z" fill="#8643DC"/>
<path d="M681.513 42.0863C681.899 42.0863 682.212 41.7701 682.212 41.3802C682.212 40.9902 681.899 40.6741 681.513 40.6741C681.127 40.6741 680.814 40.9902 680.814 41.3802C680.814 41.7701 681.127 42.0863 681.513 42.0863Z" fill="#8643DC"/>
<path d="M677.843 45.6168C678.229 45.6168 678.542 45.3007 678.542 44.9107C678.542 44.5207 678.229 44.2046 677.843 44.2046C677.457 44.2046 677.144 44.5207 677.144 44.9107C677.144 45.3007 677.457 45.6168 677.843 45.6168Z" fill="#8643DC"/>
<path d="M674.348 49.1473C674.734 49.1473 675.047 48.8312 675.047 48.4412C675.047 48.0512 674.734 47.7351 674.348 47.7351C673.962 47.7351 673.649 48.0512 673.649 48.4412C673.649 48.8312 673.962 49.1473 674.348 49.1473Z" fill="#8643DC"/>
<path d="M670.678 52.6782C671.064 52.6782 671.377 52.3621 671.377 51.9721C671.377 51.5821 671.064 51.266 670.678 51.266C670.292 51.266 669.979 51.5821 669.979 51.9721C669.979 52.3621 670.292 52.6782 670.678 52.6782Z" fill="#8643DC"/>
<path d="M667.008 56.2087C667.394 56.2087 667.707 55.8926 667.707 55.5026C667.707 55.1126 667.394 54.7965 667.008 54.7965C666.622 54.7965 666.309 55.1126 666.309 55.5026C666.309 55.8926 666.622 56.2087 667.008 56.2087Z" fill="#8643DC"/>
<path d="M663.513 59.7392C663.899 59.7392 664.212 59.4231 664.212 59.0331C664.212 58.6432 663.899 58.327 663.513 58.327C663.127 58.327 662.814 58.6432 662.814 59.0331C662.814 59.4231 663.127 59.7392 663.513 59.7392Z" fill="#8643DC"/>
<path d="M659.843 63.2697C660.229 63.2697 660.542 62.9536 660.542 62.5636C660.542 62.1737 660.229 61.8575 659.843 61.8575C659.457 61.8575 659.144 62.1737 659.144 62.5636C659.144 62.9536 659.457 63.2697 659.843 63.2697Z" fill="#8643DC"/>
<path d="M656.347 66.8004C656.733 66.8004 657.046 66.4843 657.046 66.0943C657.046 65.7043 656.733 65.3882 656.347 65.3882C655.961 65.3882 655.648 65.7043 655.648 66.0943C655.648 66.4843 655.961 66.8004 656.347 66.8004Z" fill="#8643DC"/>
<path d="M652.677 70.3309C653.063 70.3309 653.376 70.0148 653.376 69.6248C653.376 69.2348 653.063 68.9187 652.677 68.9187C652.291 68.9187 651.978 69.2348 651.978 69.6248C651.978 70.0148 652.291 70.3309 652.677 70.3309Z" fill="#8643DC"/>
<path d="M649.182 73.8614C649.568 73.8614 649.881 73.5453 649.881 73.1553C649.881 72.7653 649.568 72.4492 649.182 72.4492C648.796 72.4492 648.483 72.7653 648.483 73.1553C648.483 73.5453 648.796 73.8614 649.182 73.8614Z" fill="#8643DC"/>
<path d="M645.512 77.3919C645.898 77.3919 646.211 77.0758 646.211 76.6858C646.211 76.2959 645.898 75.9797 645.512 75.9797C645.126 75.9797 644.813 76.2959 644.813 76.6858C644.813 77.0758 645.126 77.3919 645.512 77.3919Z" fill="#8643DC"/>
<path d="M699.863 32.2008C700.249 32.2008 700.562 31.8847 700.562 31.4947C700.562 31.1047 700.249 30.7886 699.863 30.7886C699.477 30.7886 699.164 31.1047 699.164 31.4947C699.164 31.8847 699.477 32.2008 699.863 32.2008Z" fill="#8643DC"/>
<path d="M696.368 35.7315C696.754 35.7315 697.067 35.4153 697.067 35.0253C697.067 34.6353 696.754 34.3192 696.368 34.3192C695.982 34.3192 695.669 34.6353 695.669 35.0253C695.669 35.4153 695.982 35.7315 696.368 35.7315Z" fill="#8643DC"/>
<path d="M692.698 39.262C693.084 39.262 693.397 38.9458 693.397 38.5558C693.397 38.1659 693.084 37.8497 692.698 37.8497C692.312 37.8497 691.999 38.1659 691.999 38.5558C691.999 38.9458 692.312 39.262 692.698 39.262Z" fill="#8643DC"/>
<path d="M689.203 42.7925C689.589 42.7925 689.902 42.4763 689.902 42.0864C689.902 41.6964 689.589 41.3802 689.203 41.3802C688.817 41.3802 688.504 41.6964 688.504 42.0864C688.504 42.4763 688.817 42.7925 689.203 42.7925Z" fill="#8643DC"/>
<path d="M685.533 46.3231C685.919 46.3231 686.232 46.007 686.232 45.617C686.232 45.227 685.919 44.9109 685.533 44.9109C685.146 44.9109 684.833 45.227 684.833 45.617C684.833 46.007 685.146 46.3231 685.533 46.3231Z" fill="#8643DC"/>
<path d="M682.037 49.8537C682.423 49.8537 682.736 49.5375 682.736 49.1475C682.736 48.7575 682.423 48.4414 682.037 48.4414C681.651 48.4414 681.338 48.7575 681.338 49.1475C681.338 49.5375 681.651 49.8537 682.037 49.8537Z" fill="#8643DC"/>
<path d="M678.367 53.3842C678.753 53.3842 679.066 53.068 679.066 52.678C679.066 52.2881 678.753 51.9719 678.367 51.9719C677.981 51.9719 677.668 52.2881 677.668 52.678C677.668 53.068 677.981 53.3842 678.367 53.3842Z" fill="#8643DC"/>
<path d="M674.872 56.9147C675.258 56.9147 675.571 56.5985 675.571 56.2085C675.571 55.8186 675.258 55.5024 674.872 55.5024C674.486 55.5024 674.173 55.8186 674.173 56.2085C674.173 56.5985 674.486 56.9147 674.872 56.9147Z" fill="#8643DC"/>
<path d="M671.202 60.4456C671.588 60.4456 671.901 60.1294 671.901 59.7394C671.901 59.3495 671.588 59.0333 671.202 59.0333C670.816 59.0333 670.503 59.3495 670.503 59.7394C670.503 60.1294 670.816 60.4456 671.202 60.4456Z" fill="#8643DC"/>
<path d="M667.707 63.9761C668.093 63.9761 668.406 63.6599 668.406 63.2699C668.406 62.88 668.093 62.5638 667.707 62.5638C667.321 62.5638 667.008 62.88 667.008 63.2699C667.008 63.6599 667.321 63.9761 667.707 63.9761Z" fill="#8643DC"/>
<path d="M664.037 67.5066C664.423 67.5066 664.736 67.1904 664.736 66.8005C664.736 66.4105 664.423 66.0944 664.037 66.0944C663.651 66.0944 663.338 66.4105 663.338 66.8005C663.338 67.1904 663.651 67.5066 664.037 67.5066Z" fill="#8643DC"/>
<path d="M660.542 71.0371C660.928 71.0371 661.241 70.721 661.241 70.331C661.241 69.941 660.928 69.6249 660.542 69.6249C660.156 69.6249 659.843 69.941 659.843 70.331C659.843 70.721 660.156 71.0371 660.542 71.0371Z" fill="#8643DC"/>
<path d="M656.872 74.5678C657.258 74.5678 657.571 74.2516 657.571 73.8616C657.571 73.4716 657.258 73.1555 656.872 73.1555C656.486 73.1555 656.173 73.4716 656.173 73.8616C656.173 74.2516 656.486 74.5678 656.872 74.5678Z" fill="#8643DC"/>
<path d="M653.376 78.0983C653.762 78.0983 654.075 77.7821 654.075 77.3921C654.075 77.0022 653.762 76.686 653.376 76.686C652.99 76.686 652.677 77.0022 652.677 77.3921C652.677 77.7821 652.99 78.0983 653.376 78.0983Z" fill="#8643DC"/>
<path d="M649.706 81.8053C650.093 81.8053 650.406 81.4891 650.406 81.0992C650.406 80.7092 650.093 80.3931 649.706 80.3931C649.32 80.3931 649.007 80.7092 649.007 81.0992C649.007 81.4891 649.32 81.8053 649.706 81.8053Z" fill="#8643DC"/>
<path d="M704.057 36.4374C704.443 36.4374 704.756 36.1213 704.756 35.7313C704.756 35.3413 704.443 35.0251 704.057 35.0251C703.671 35.0251 703.358 35.3413 703.358 35.7313C703.358 36.1213 703.671 36.4374 704.057 36.4374Z" fill="#8643DC"/>
<path d="M700.387 39.9679C700.773 39.9679 701.086 39.6518 701.086 39.2618C701.086 38.8718 700.773 38.5557 700.387 38.5557C700.001 38.5557 699.688 38.8718 699.688 39.2618C699.688 39.6518 700.001 39.9679 700.387 39.9679Z" fill="#8643DC"/>
<path d="M696.892 43.4984C697.278 43.4984 697.591 43.1823 697.591 42.7923C697.591 42.4024 697.278 42.0862 696.892 42.0862C696.506 42.0862 696.193 42.4024 696.193 42.7923C696.193 43.1823 696.506 43.4984 696.892 43.4984Z" fill="#8643DC"/>
<path d="M693.222 47.029C693.608 47.029 693.921 46.7128 693.921 46.3229C693.921 45.9329 693.608 45.6167 693.222 45.6167C692.836 45.6167 692.523 45.9329 692.523 46.3229C692.523 46.7128 692.836 47.029 693.222 47.029Z" fill="#8643DC"/>
<path d="M689.727 50.5595C690.113 50.5595 690.426 50.2433 690.426 49.8534C690.426 49.4634 690.113 49.1472 689.727 49.1472C689.341 49.1472 689.028 49.4634 689.028 49.8534C689.028 50.2433 689.341 50.5595 689.727 50.5595Z" fill="#8643DC"/>
<path d="M686.057 54.0901C686.443 54.0901 686.756 53.774 686.756 53.384C686.756 52.994 686.443 52.6779 686.057 52.6779C685.671 52.6779 685.358 52.994 685.358 53.384C685.358 53.774 685.671 54.0901 686.057 54.0901Z" fill="#8643DC"/>
<path d="M682.561 57.6206C682.947 57.6206 683.26 57.3045 683.26 56.9145C683.26 56.5246 682.947 56.2084 682.561 56.2084C682.175 56.2084 681.862 56.5246 681.862 56.9145C681.862 57.3045 682.175 57.6206 682.561 57.6206Z" fill="#8643DC"/>
<path d="M678.891 61.1511C679.278 61.1511 679.591 60.835 679.591 60.445C679.591 60.0551 679.278 59.7389 678.891 59.7389C678.505 59.7389 678.192 60.0551 678.192 60.445C678.192 60.835 678.505 61.1511 678.891 61.1511Z" fill="#8643DC"/>
<path d="M675.396 64.6819C675.782 64.6819 676.095 64.3658 676.095 63.9758C676.095 63.5858 675.782 63.2697 675.396 63.2697C675.01 63.2697 674.697 63.5858 674.697 63.9758C674.697 64.3658 675.01 64.6819 675.396 64.6819Z" fill="#8643DC"/>
<path d="M671.726 68.2124C672.112 68.2124 672.425 67.8963 672.425 67.5063C672.425 67.1164 672.112 66.8002 671.726 66.8002C671.34 66.8002 671.027 67.1164 671.027 67.5063C671.027 67.8963 671.34 68.2124 671.726 68.2124Z" fill="#8643DC"/>
<path d="M668.231 71.7431C668.617 71.7431 668.93 71.4269 668.93 71.037C668.93 70.647 668.617 70.3308 668.231 70.3308C667.845 70.3308 667.532 70.647 667.532 71.037C667.532 71.4269 667.845 71.7431 668.231 71.7431Z" fill="#8643DC"/>
<path d="M664.561 75.2736C664.947 75.2736 665.26 74.9575 665.26 74.5675C665.26 74.1775 664.947 73.8613 664.561 73.8613C664.175 73.8613 663.862 74.1775 663.862 74.5675C663.862 74.9575 664.175 75.2736 664.561 75.2736Z" fill="#8643DC"/>
<path d="M661.066 78.9806C661.452 78.9806 661.765 78.6644 661.765 78.2745C661.765 77.8845 661.452 77.5684 661.066 77.5684C660.68 77.5684 660.367 77.8845 660.367 78.2745C660.367 78.6644 660.68 78.9806 661.066 78.9806Z" fill="#8643DC"/>
<path d="M657.396 82.5113C657.782 82.5113 658.095 82.1951 658.095 81.8051C658.095 81.4151 657.782 81.099 657.396 81.099C657.01 81.099 656.697 81.4151 656.697 81.8051C656.697 82.1951 657.01 82.5113 657.396 82.5113Z" fill="#8643DC"/>
<path d="M653.901 86.0418C654.287 86.0418 654.6 85.7256 654.6 85.3356C654.6 84.9456 654.287 84.6295 653.901 84.6295C653.514 84.6295 653.202 84.9456 653.202 85.3356C653.202 85.7256 653.514 86.0418 653.901 86.0418Z" fill="#8643DC"/>
<path d="M708.251 40.6743C708.638 40.6743 708.95 40.3582 708.95 39.9682C708.95 39.5782 708.638 39.2621 708.251 39.2621C707.865 39.2621 707.552 39.5782 707.552 39.9682C707.552 40.3582 707.865 40.6743 708.251 40.6743Z" fill="#8643DC"/>
<path d="M704.581 44.2048C704.968 44.2048 705.281 43.8887 705.281 43.4987C705.281 43.1087 704.968 42.7926 704.581 42.7926C704.195 42.7926 703.882 43.1087 703.882 43.4987C703.882 43.8887 704.195 44.2048 704.581 44.2048Z" fill="#8643DC"/>
<path d="M701.086 47.7354C701.472 47.7354 701.785 47.4193 701.785 47.0293C701.785 46.6394 701.472 46.3232 701.086 46.3232C700.7 46.3232 700.387 46.6394 700.387 47.0293C700.387 47.4193 700.7 47.7354 701.086 47.7354Z" fill="#8643DC"/>
<path d="M697.416 51.266C697.802 51.266 698.115 50.9498 698.115 50.5599C698.115 50.1699 697.802 49.8538 697.416 49.8538C697.03 49.8538 696.717 50.1699 696.717 50.5599C696.717 50.9498 697.03 51.266 697.416 51.266Z" fill="#8643DC"/>
<path d="M693.746 54.7965C694.132 54.7965 694.445 54.4804 694.445 54.0904C694.445 53.7004 694.132 53.3843 693.746 53.3843C693.36 53.3843 693.047 53.7004 693.047 54.0904C693.047 54.4804 693.36 54.7965 693.746 54.7965Z" fill="#8643DC"/>
<path d="M690.251 58.327C690.637 58.327 690.95 58.0109 690.95 57.6209C690.95 57.2309 690.637 56.9148 690.251 56.9148C689.865 56.9148 689.552 57.2309 689.552 57.6209C689.552 58.0109 689.865 58.327 690.251 58.327Z" fill="#8643DC"/>
<path d="M686.581 61.8575C686.967 61.8575 687.28 61.5414 687.28 61.1514C687.28 60.7614 686.967 60.4453 686.581 60.4453C686.195 60.4453 685.882 60.7614 685.882 61.1514C685.882 61.5414 686.195 61.8575 686.581 61.8575Z" fill="#8643DC"/>
<path d="M683.086 65.3882C683.472 65.3882 683.785 65.072 683.785 64.6821C683.785 64.2921 683.472 63.976 683.086 63.976C682.7 63.976 682.387 64.2921 682.387 64.6821C682.387 65.072 682.7 65.3882 683.086 65.3882Z" fill="#8643DC"/>
<path d="M679.416 68.9189C679.802 68.9189 680.115 68.6028 680.115 68.2128C680.115 67.8228 679.802 67.5067 679.416 67.5067C679.03 67.5067 678.717 67.8228 678.717 68.2128C678.717 68.6028 679.03 68.9189 679.416 68.9189Z" fill="#8643DC"/>
<path d="M675.921 72.4494C676.307 72.4494 676.62 72.1333 676.62 71.7433C676.62 71.3534 676.307 71.0372 675.921 71.0372C675.535 71.0372 675.222 71.3534 675.222 71.7433C675.222 72.1333 675.535 72.4494 675.921 72.4494Z" fill="#8643DC"/>
<path d="M672.251 76.1564C672.637 76.1564 672.95 75.8403 672.95 75.4503C672.95 75.0603 672.637 74.7441 672.251 74.7441C671.864 74.7441 671.552 75.0603 671.552 75.4503C671.552 75.8403 671.864 76.1564 672.251 76.1564Z" fill="#8643DC"/>
<path d="M668.755 79.6872C669.141 79.6872 669.454 79.371 669.454 78.9811C669.454 78.5911 669.141 78.2749 668.755 78.2749C668.369 78.2749 668.056 78.5911 668.056 78.9811C668.056 79.371 668.369 79.6872 668.755 79.6872Z" fill="#8643DC"/>
<path d="M665.085 83.2177C665.471 83.2177 665.784 82.9016 665.784 82.5116C665.784 82.1216 665.471 81.8054 665.085 81.8054C664.699 81.8054 664.386 82.1216 664.386 82.5116C664.386 82.9016 664.699 83.2177 665.085 83.2177Z" fill="#8643DC"/>
<path d="M661.59 86.7482C661.976 86.7482 662.289 86.4321 662.289 86.0421C662.289 85.6521 661.976 85.3359 661.59 85.3359C661.204 85.3359 660.891 85.6521 660.891 86.0421C660.891 86.4321 661.204 86.7482 661.59 86.7482Z" fill="#8643DC"/>
<path d="M657.92 90.2787C658.306 90.2787 658.619 89.9626 658.619 89.5726C658.619 89.1826 658.306 88.8665 657.92 88.8665C657.534 88.8665 657.221 89.1826 657.221 89.5726C657.221 89.9626 657.534 90.2787 657.92 90.2787Z" fill="#8643DC"/>
<path d="M712.271 44.911C712.657 44.911 712.97 44.5949 712.97 44.2049C712.97 43.8149 712.657 43.4988 712.271 43.4988C711.885 43.4988 711.572 43.8149 711.572 44.2049C711.572 44.5949 711.885 44.911 712.271 44.911Z" fill="#8643DC"/>
<path d="M708.776 48.4416C709.162 48.4416 709.475 48.1255 709.475 47.7355C709.475 47.3455 709.162 47.0294 708.776 47.0294C708.39 47.0294 708.077 47.3455 708.077 47.7355C708.077 48.1255 708.39 48.4416 708.776 48.4416Z" fill="#8643DC"/>
<path d="M705.106 51.9721C705.492 51.9721 705.805 51.656 705.805 51.266C705.805 50.8761 705.492 50.5599 705.106 50.5599C704.72 50.5599 704.407 50.8761 704.407 51.266C704.407 51.656 704.72 51.9721 705.106 51.9721Z" fill="#8643DC"/>
<path d="M701.611 55.5027C701.997 55.5027 702.31 55.1865 702.31 54.7966C702.31 54.4066 701.997 54.0905 701.611 54.0905C701.224 54.0905 700.911 54.4066 700.911 54.7966C700.911 55.1865 701.224 55.5027 701.611 55.5027Z" fill="#8643DC"/>
<path d="M697.941 59.0333C698.327 59.0333 698.64 58.7172 698.64 58.3272C698.64 57.9372 698.327 57.6211 697.941 57.6211C697.555 57.6211 697.242 57.9372 697.242 58.3272C697.242 58.7172 697.555 59.0333 697.941 59.0333Z" fill="#8643DC"/>
<path d="M694.445 62.5638C694.831 62.5638 695.144 62.2477 695.144 61.8577C695.144 61.4677 694.831 61.1516 694.445 61.1516C694.059 61.1516 693.746 61.4677 693.746 61.8577C693.746 62.2477 694.059 62.5638 694.445 62.5638Z" fill="#8643DC"/>
<path d="M690.776 66.0943C691.162 66.0943 691.475 65.7782 691.475 65.3882C691.475 64.9983 691.162 64.6821 690.776 64.6821C690.389 64.6821 690.076 64.9983 690.076 65.3882C690.076 65.7782 690.389 66.0943 690.776 66.0943Z" fill="#8643DC"/>
<path d="M687.28 69.6249C687.666 69.6249 687.979 69.3087 687.979 68.9187C687.979 68.5288 687.666 68.2126 687.28 68.2126C686.894 68.2126 686.581 68.5288 686.581 68.9187C686.581 69.3087 686.894 69.6249 687.28 69.6249Z" fill="#8643DC"/>
<path d="M683.61 73.1557C683.996 73.1557 684.309 72.8396 684.309 72.4496C684.309 72.0597 683.996 71.7435 683.61 71.7435C683.224 71.7435 682.911 72.0597 682.911 72.4496C682.911 72.8396 683.224 73.1557 683.61 73.1557Z" fill="#8643DC"/>
<path d="M679.94 76.8628C680.326 76.8628 680.639 76.5466 680.639 76.1567C680.639 75.7667 680.326 75.4506 679.94 75.4506C679.554 75.4506 679.241 75.7667 679.241 76.1567C679.241 76.5466 679.554 76.8628 679.94 76.8628Z" fill="#8643DC"/>
<path d="M676.445 80.3933C676.831 80.3933 677.144 80.0772 677.144 79.6872C677.144 79.2972 676.831 78.9811 676.445 78.9811C676.059 78.9811 675.746 79.2972 675.746 79.6872C675.746 80.0772 676.059 80.3933 676.445 80.3933Z" fill="#8643DC"/>
<path d="M672.775 83.9238C673.161 83.9238 673.474 83.6077 673.474 83.2177C673.474 82.8277 673.161 82.5116 672.775 82.5116C672.389 82.5116 672.076 82.8277 672.076 83.2177C672.076 83.6077 672.389 83.9238 672.775 83.9238Z" fill="#8643DC"/>
<path d="M669.28 87.4544C669.666 87.4544 669.979 87.1383 669.979 86.7483C669.979 86.3584 669.666 86.0422 669.28 86.0422C668.893 86.0422 668.581 86.3584 668.581 86.7483C668.581 87.1383 668.893 87.4544 669.28 87.4544Z" fill="#8643DC"/>
<path d="M665.61 90.985C665.996 90.985 666.309 90.6688 666.309 90.2789C666.309 89.8889 665.996 89.5728 665.61 89.5728C665.224 89.5728 664.911 89.8889 664.911 90.2789C664.911 90.6688 665.224 90.985 665.61 90.985Z" fill="#8643DC"/>
<path d="M662.114 94.5155C662.501 94.5155 662.814 94.1993 662.814 93.8094C662.814 93.4194 662.501 93.1033 662.114 93.1033C661.728 93.1033 661.415 93.4194 661.415 93.8094C661.415 94.1993 661.728 94.5155 662.114 94.5155Z" fill="#8643DC"/>
<path d="M716.465 49.1476C716.851 49.1476 717.164 48.8314 717.164 48.4415C717.164 48.0515 716.851 47.7354 716.465 47.7354C716.079 47.7354 715.766 48.0515 715.766 48.4415C715.766 48.8314 716.079 49.1476 716.465 49.1476Z" fill="#8643DC"/>
<path d="M712.795 52.6781C713.181 52.6781 713.494 52.3619 713.494 51.972C713.494 51.582 713.181 51.2659 712.795 51.2659C712.409 51.2659 712.096 51.582 712.096 51.972C712.096 52.3619 712.409 52.6781 712.795 52.6781Z" fill="#8643DC"/>
<path d="M709.3 56.2086C709.686 56.2086 709.999 55.8925 709.999 55.5025C709.999 55.1125 709.686 54.7964 709.3 54.7964C708.914 54.7964 708.601 55.1125 708.601 55.5025C708.601 55.8925 708.914 56.2086 709.3 56.2086Z" fill="#8643DC"/>
<path d="M705.63 59.7391C706.016 59.7391 706.329 59.423 706.329 59.033C706.329 58.643 706.016 58.3269 705.63 58.3269C705.244 58.3269 704.931 58.643 704.931 59.033C704.931 59.423 705.244 59.7391 705.63 59.7391Z" fill="#8643DC"/>
<path d="M702.135 63.2696C702.521 63.2696 702.834 62.9535 702.834 62.5635C702.834 62.1735 702.521 61.8574 702.135 61.8574C701.749 61.8574 701.436 62.1735 701.436 62.5635C701.436 62.9535 701.749 63.2696 702.135 63.2696Z" fill="#8643DC"/>
<path d="M698.465 66.8003C698.851 66.8003 699.164 66.4841 699.164 66.0942C699.164 65.7042 698.851 65.3881 698.465 65.3881C698.079 65.3881 697.766 65.7042 697.766 66.0942C697.766 66.4841 698.079 66.8003 698.465 66.8003Z" fill="#8643DC"/>
<path d="M694.97 70.3308C695.356 70.3308 695.669 70.0147 695.669 69.6247C695.669 69.2347 695.356 68.9186 694.97 68.9186C694.584 68.9186 694.271 69.2347 694.271 69.6247C694.271 70.0147 694.584 70.3308 694.97 70.3308Z" fill="#8643DC"/>
<path d="M691.299 74.0381C691.686 74.0381 691.999 73.7219 691.999 73.332C691.999 72.942 691.686 72.6259 691.299 72.6259C690.913 72.6259 690.6 72.942 690.6 73.332C690.6 73.7219 690.913 74.0381 691.299 74.0381Z" fill="#8643DC"/>
<path d="M687.804 77.5686C688.19 77.5686 688.503 77.2524 688.503 76.8625C688.503 76.4725 688.19 76.1564 687.804 76.1564C687.418 76.1564 687.105 76.4725 687.105 76.8625C687.105 77.2524 687.418 77.5686 687.804 77.5686Z" fill="#8643DC"/>
<path d="M684.134 81.0992C684.52 81.0992 684.833 80.7831 684.833 80.3931C684.833 80.0031 684.52 79.687 684.134 79.687C683.748 79.687 683.435 80.0031 683.435 80.3931C683.435 80.7831 683.748 81.0992 684.134 81.0992Z" fill="#8643DC"/>
<path d="M680.639 84.6297C681.025 84.6297 681.338 84.3136 681.338 83.9236C681.338 83.5337 681.025 83.2175 680.639 83.2175C680.253 83.2175 679.94 83.5337 679.94 83.9236C679.94 84.3136 680.253 84.6297 680.639 84.6297Z" fill="#8643DC"/>
<path d="M676.969 88.1603C677.355 88.1603 677.668 87.8441 677.668 87.4541C677.668 87.0642 677.355 86.748 676.969 86.748C676.583 86.748 676.27 87.0642 676.27 87.4541C676.27 87.8441 676.583 88.1603 676.969 88.1603Z" fill="#8643DC"/>
<path d="M673.474 91.6908C673.86 91.6908 674.173 91.3746 674.173 90.9847C674.173 90.5947 673.86 90.2786 673.474 90.2786C673.088 90.2786 672.775 90.5947 672.775 90.9847C672.775 91.3746 673.088 91.6908 673.474 91.6908Z" fill="#8643DC"/>
<path d="M669.804 95.2213C670.19 95.2213 670.503 94.9052 670.503 94.5152C670.503 94.1252 670.19 93.8091 669.804 93.8091C669.418 93.8091 669.105 94.1252 669.105 94.5152C669.105 94.9052 669.418 95.2213 669.804 95.2213Z" fill="#8643DC"/>
<path d="M666.309 98.7519C666.695 98.7519 667.008 98.4358 667.008 98.0458C667.008 97.6558 666.695 97.3397 666.309 97.3397C665.923 97.3397 665.61 97.6558 665.61 98.0458C665.61 98.4358 665.923 98.7519 666.309 98.7519Z" fill="#8643DC"/>
<path d="M720.485 53.3843C720.871 53.3843 721.184 53.0681 721.184 52.6781C721.184 52.2882 720.871 51.972 720.485 51.972C720.099 51.972 719.786 52.2882 719.786 52.6781C719.786 53.0681 720.099 53.3843 720.485 53.3843Z" fill="#8643DC"/>
<path d="M716.989 56.9148C717.376 56.9148 717.688 56.5986 717.688 56.2087C717.688 55.8187 717.376 55.5026 716.989 55.5026C716.603 55.5026 716.29 55.8187 716.29 56.2087C716.29 56.5986 716.603 56.9148 716.989 56.9148Z" fill="#8643DC"/>
<path d="M713.32 60.4455C713.706 60.4455 714.019 60.1293 714.019 59.7393C714.019 59.3493 713.706 59.0332 713.32 59.0332C712.933 59.0332 712.62 59.3493 712.62 59.7393C712.62 60.1293 712.933 60.4455 713.32 60.4455Z" fill="#8643DC"/>
<path d="M709.824 63.976C710.21 63.976 710.523 63.6598 710.523 63.2698C710.523 62.8798 710.21 62.5637 709.824 62.5637C709.438 62.5637 709.125 62.8798 709.125 63.2698C709.125 63.6598 709.438 63.976 709.824 63.976Z" fill="#8643DC"/>
<path d="M706.154 67.5065C706.54 67.5065 706.853 67.1903 706.853 66.8003C706.853 66.4104 706.54 66.0942 706.154 66.0942C705.768 66.0942 705.455 66.4104 705.455 66.8003C705.455 67.1903 705.768 67.5065 706.154 67.5065Z" fill="#8643DC"/>
<path d="M702.659 71.2135C703.045 71.2135 703.358 70.8973 703.358 70.5074C703.358 70.1174 703.045 69.8013 702.659 69.8013C702.273 69.8013 701.96 70.1174 701.96 70.5074C701.96 70.8973 702.273 71.2135 702.659 71.2135Z" fill="#8643DC"/>
<path d="M698.989 74.7441C699.375 74.7441 699.688 74.428 699.688 74.038C699.688 73.648 699.375 73.3319 698.989 73.3319C698.603 73.3319 698.29 73.648 698.29 74.038C698.29 74.428 698.603 74.7441 698.989 74.7441Z" fill="#8643DC"/>
<path d="M695.494 78.2749C695.88 78.2749 696.193 77.9587 696.193 77.5688C696.193 77.1788 695.88 76.8627 695.494 76.8627C695.108 76.8627 694.795 77.1788 694.795 77.5688C694.795 77.9587 695.108 78.2749 695.494 78.2749Z" fill="#8643DC"/>
<path d="M691.824 81.8054C692.21 81.8054 692.523 81.4893 692.523 81.0993C692.523 80.7093 692.21 80.3932 691.824 80.3932C691.438 80.3932 691.125 80.7093 691.125 81.0993C691.125 81.4893 691.438 81.8054 691.824 81.8054Z" fill="#8643DC"/>
<path d="M688.329 85.3359C688.715 85.3359 689.028 85.0198 689.028 84.6298C689.028 84.2398 688.715 83.9237 688.329 83.9237C687.943 83.9237 687.63 84.2398 687.63 84.6298C687.63 85.0198 687.943 85.3359 688.329 85.3359Z" fill="#8643DC"/>
<path d="M684.659 88.8664C685.045 88.8664 685.358 88.5503 685.358 88.1603C685.358 87.7704 685.045 87.4542 684.659 87.4542C684.273 87.4542 683.96 87.7704 683.96 88.1603C683.96 88.5503 684.273 88.8664 684.659 88.8664Z" fill="#8643DC"/>
<path d="M681.163 92.3971C681.549 92.3971 681.862 92.0809 681.862 91.691C681.862 91.301 681.549 90.9849 681.163 90.9849C680.777 90.9849 680.464 91.301 680.464 91.691C680.464 92.0809 680.777 92.3971 681.163 92.3971Z" fill="#8643DC"/>
<path d="M677.493 95.9276C677.879 95.9276 678.192 95.6115 678.192 95.2215C678.192 94.8315 677.879 94.5154 677.493 94.5154C677.107 94.5154 676.794 94.8315 676.794 95.2215C676.794 95.6115 677.107 95.9276 677.493 95.9276Z" fill="#8643DC"/>
<path d="M673.998 99.4581C674.384 99.4581 674.697 99.142 674.697 98.752C674.697 98.362 674.384 98.0459 673.998 98.0459C673.612 98.0459 673.299 98.362 673.299 98.752C673.299 99.142 673.612 99.4581 673.998 99.4581Z" fill="#8643DC"/>
<path d="M670.328 102.989C670.714 102.989 671.027 102.672 671.027 102.283C671.027 101.893 670.714 101.576 670.328 101.576C669.942 101.576 669.629 101.893 669.629 102.283C669.629 102.672 669.942 102.989 670.328 102.989Z" fill="#8643DC"/>
<path d="M724.679 57.621C725.065 57.621 725.378 57.3049 725.378 56.9149C725.378 56.5249 725.065 56.2087 724.679 56.2087C724.293 56.2087 723.98 56.5249 723.98 56.9149C723.98 57.3049 724.293 57.621 724.679 57.621Z" fill="#8643DC"/>
<path d="M721.184 61.1516C721.57 61.1516 721.883 60.8355 721.883 60.4455C721.883 60.0556 721.57 59.7394 721.184 59.7394C720.798 59.7394 720.485 60.0556 720.485 60.4455C720.485 60.8355 720.798 61.1516 721.184 61.1516Z" fill="#8643DC"/>
<path d="M717.514 64.6822C717.9 64.6822 718.213 64.366 718.213 63.9761C718.213 63.5861 717.9 63.2699 717.514 63.2699C717.128 63.2699 716.815 63.5861 716.815 63.9761C716.815 64.366 717.128 64.6822 717.514 64.6822Z" fill="#8643DC"/>
<path d="M714.019 68.3893C714.405 68.3893 714.718 68.0731 714.718 67.6832C714.718 67.2932 714.405 66.9771 714.019 66.9771C713.632 66.9771 713.319 67.2932 713.319 67.6832C713.319 68.0731 713.632 68.3893 714.019 68.3893Z" fill="#8643DC"/>
<path d="M710.349 71.9198C710.735 71.9198 711.048 71.6036 711.048 71.2137C711.048 70.8237 710.735 70.5076 710.349 70.5076C709.962 70.5076 709.65 70.8237 709.65 71.2137C709.65 71.6036 709.962 71.9198 710.349 71.9198Z" fill="#8643DC"/>
<path d="M706.679 75.4503C707.065 75.4503 707.378 75.1342 707.378 74.7442C707.378 74.3542 707.065 74.0381 706.679 74.0381C706.293 74.0381 705.98 74.3542 705.98 74.7442C705.98 75.1342 706.293 75.4503 706.679 75.4503Z" fill="#8643DC"/>
<path d="M703.183 78.9811C703.569 78.9811 703.882 78.6649 703.882 78.2749C703.882 77.885 703.569 77.5688 703.183 77.5688C702.797 77.5688 702.484 77.885 702.484 78.2749C702.484 78.6649 702.797 78.9811 703.183 78.9811Z" fill="#8643DC"/>
<path d="M699.513 82.5116C699.899 82.5116 700.212 82.1954 700.212 81.8055C700.212 81.4155 699.899 81.0994 699.513 81.0994C699.127 81.0994 698.814 81.4155 698.814 81.8055C698.814 82.1954 699.127 82.5116 699.513 82.5116Z" fill="#8643DC"/>
<path d="M696.018 86.0423C696.404 86.0423 696.717 85.7261 696.717 85.3361C696.717 84.9461 696.404 84.63 696.018 84.63C695.632 84.63 695.319 84.9461 695.319 85.3361C695.319 85.7261 695.632 86.0423 696.018 86.0423Z" fill="#8643DC"/>
<path d="M692.348 89.5728C692.734 89.5728 693.047 89.2566 693.047 88.8666C693.047 88.4766 692.734 88.1605 692.348 88.1605C691.962 88.1605 691.649 88.4766 691.649 88.8666C691.649 89.2566 691.962 89.5728 692.348 89.5728Z" fill="#8643DC"/>
<path d="M688.853 93.1033C689.239 93.1033 689.552 92.7871 689.552 92.3971C689.552 92.0072 689.239 91.691 688.853 91.691C688.467 91.691 688.154 92.0072 688.154 92.3971C688.154 92.7871 688.467 93.1033 688.853 93.1033Z" fill="#8643DC"/>
<path d="M685.183 96.6338C685.569 96.6338 685.882 96.3176 685.882 95.9277C685.882 95.5377 685.569 95.2216 685.183 95.2216C684.797 95.2216 684.484 95.5377 684.484 95.9277C684.484 96.3176 684.797 96.6338 685.183 96.6338Z" fill="#8643DC"/>
<path d="M681.688 100.164C682.074 100.164 682.387 99.8483 682.387 99.4583C682.387 99.0683 682.074 98.7522 681.688 98.7522C681.302 98.7522 680.989 99.0683 680.989 99.4583C680.989 99.8483 681.302 100.164 681.688 100.164Z" fill="#8643DC"/>
<path d="M678.018 103.695C678.404 103.695 678.717 103.379 678.717 102.989C678.717 102.599 678.404 102.283 678.018 102.283C677.632 102.283 677.319 102.599 677.319 102.989C677.319 103.379 677.632 103.695 678.018 103.695Z" fill="#8643DC"/>
<path d="M674.522 107.225C674.909 107.225 675.221 106.909 675.221 106.519C675.221 106.129 674.909 105.813 674.522 105.813C674.136 105.813 673.823 106.129 673.823 106.519C673.823 106.909 674.136 107.225 674.522 107.225Z" fill="#8643DC"/>
<path d="M728.873 61.8575C729.259 61.8575 729.572 61.5414 729.572 61.1514C729.572 60.7614 729.259 60.4453 728.873 60.4453C728.487 60.4453 728.174 60.7614 728.174 61.1514C728.174 61.5414 728.487 61.8575 728.873 61.8575Z" fill="#8643DC"/>
<path d="M725.203 65.5646C725.589 65.5646 725.902 65.2485 725.902 64.8585C725.902 64.4685 725.589 64.1523 725.203 64.1523C724.817 64.1523 724.504 64.4685 724.504 64.8585C724.504 65.2485 724.817 65.5646 725.203 65.5646Z" fill="#8643DC"/>
<path d="M721.708 69.0951C722.094 69.0951 722.407 68.779 722.407 68.389C722.407 67.999 722.094 67.6829 721.708 67.6829C721.322 67.6829 721.009 67.999 721.009 68.389C721.009 68.779 721.322 69.0951 721.708 69.0951Z" fill="#8643DC"/>
<path d="M718.038 72.6256C718.424 72.6256 718.737 72.3095 718.737 71.9195C718.737 71.5296 718.424 71.2134 718.038 71.2134C717.652 71.2134 717.339 71.5296 717.339 71.9195C717.339 72.3095 717.652 72.6256 718.038 72.6256Z" fill="#8643DC"/>
<path d="M714.543 76.1563C714.929 76.1563 715.242 75.8401 715.242 75.4502C715.242 75.0602 714.929 74.744 714.543 74.744C714.157 74.744 713.844 75.0602 713.844 75.4502C713.844 75.8401 714.157 76.1563 714.543 76.1563Z" fill="#8643DC"/>
<path d="M710.873 79.6868C711.259 79.6868 711.572 79.3707 711.572 78.9807C711.572 78.5907 711.259 78.2745 710.873 78.2745C710.487 78.2745 710.174 78.5907 710.174 78.9807C710.174 79.3707 710.487 79.6868 710.873 79.6868Z" fill="#8643DC"/>
<path d="M707.378 83.2173C707.764 83.2173 708.077 82.9012 708.077 82.5112C708.077 82.1212 707.764 81.8051 707.378 81.8051C706.992 81.8051 706.679 82.1212 706.679 82.5112C706.679 82.9012 706.992 83.2173 707.378 83.2173Z" fill="#8643DC"/>
<path d="M703.708 86.7478C704.094 86.7478 704.407 86.4317 704.407 86.0417C704.407 85.6518 704.094 85.3356 703.708 85.3356C703.322 85.3356 703.009 85.6518 703.009 86.0417C703.009 86.4317 703.322 86.7478 703.708 86.7478Z" fill="#8643DC"/>
<path d="M700.212 90.2783C700.598 90.2783 700.911 89.9622 700.911 89.5722C700.911 89.1823 700.598 88.8661 700.212 88.8661C699.826 88.8661 699.513 89.1823 699.513 89.5722C699.513 89.9622 699.826 90.2783 700.212 90.2783Z" fill="#8643DC"/>
<path d="M696.542 93.809C696.928 93.809 697.241 93.4929 697.241 93.1029C697.241 92.7129 696.928 92.3967 696.542 92.3967C696.156 92.3967 695.843 92.7129 695.843 93.1029C695.843 93.4929 696.156 93.809 696.542 93.809Z" fill="#8643DC"/>
<path d="M692.872 97.3397C693.258 97.3397 693.571 97.0236 693.571 96.6336C693.571 96.2437 693.258 95.9275 692.872 95.9275C692.486 95.9275 692.173 96.2437 692.173 96.6336C692.173 97.0236 692.486 97.3397 692.872 97.3397Z" fill="#8643DC"/>
<path d="M689.377 100.87C689.763 100.87 690.076 100.554 690.076 100.164C690.076 99.7742 689.763 99.458 689.377 99.458C688.991 99.458 688.678 99.7742 688.678 100.164C688.678 100.554 688.991 100.87 689.377 100.87Z" fill="#8643DC"/>
<path d="M685.707 104.401C686.093 104.401 686.406 104.085 686.406 103.695C686.406 103.305 686.093 102.989 685.707 102.989C685.321 102.989 685.008 103.305 685.008 103.695C685.008 104.085 685.321 104.401 685.707 104.401Z" fill="#8643DC"/>
<path d="M682.212 107.931C682.598 107.931 682.911 107.615 682.911 107.225C682.911 106.835 682.598 106.519 682.212 106.519C681.826 106.519 681.513 106.835 681.513 107.225C681.513 107.615 681.826 107.931 682.212 107.931Z" fill="#8643DC"/>
<path d="M678.542 111.462C678.928 111.462 679.241 111.146 679.241 110.756C679.241 110.366 678.928 110.05 678.542 110.05C678.156 110.05 677.843 110.366 677.843 110.756C677.843 111.146 678.156 111.462 678.542 111.462Z" fill="#8643DC"/>
<path d="M732.893 66.2707C733.279 66.2707 733.592 65.9546 733.592 65.5646C733.592 65.1746 733.279 64.8585 732.893 64.8585C732.507 64.8585 732.194 65.1746 732.194 65.5646C732.194 65.9546 732.507 66.2707 732.893 66.2707Z" fill="#8643DC"/>
<path d="M729.398 69.8012C729.784 69.8012 730.097 69.4851 730.097 69.0951C730.097 68.7052 729.784 68.389 729.398 68.389C729.012 68.389 728.699 68.7052 728.699 69.0951C728.699 69.4851 729.012 69.8012 729.398 69.8012Z" fill="#8643DC"/>
<path d="M725.728 73.3319C726.114 73.3319 726.427 73.0158 726.427 72.6258C726.427 72.2358 726.114 71.9197 725.728 71.9197C725.342 71.9197 725.029 72.2358 725.029 72.6258C725.029 73.0158 725.342 73.3319 725.728 73.3319Z" fill="#8643DC"/>
<path d="M722.232 76.8624C722.619 76.8624 722.931 76.5463 722.931 76.1563C722.931 75.7663 722.619 75.4502 722.232 75.4502C721.846 75.4502 721.533 75.7663 721.533 76.1563C721.533 76.5463 721.846 76.8624 722.232 76.8624Z" fill="#8643DC"/>
<path d="M718.562 80.3929C718.948 80.3929 719.261 80.0768 719.261 79.6868C719.261 79.2968 718.948 78.9807 718.562 78.9807C718.176 78.9807 717.863 79.2968 717.863 79.6868C717.863 80.0768 718.176 80.3929 718.562 80.3929Z" fill="#8643DC"/>
<path d="M715.067 83.9234C715.453 83.9234 715.766 83.6073 715.766 83.2173C715.766 82.8274 715.453 82.5112 715.067 82.5112C714.681 82.5112 714.368 82.8274 714.368 83.2173C714.368 83.6073 714.681 83.9234 715.067 83.9234Z" fill="#8643DC"/>
<path d="M711.397 87.4541C711.783 87.4541 712.096 87.1379 712.096 86.748C712.096 86.358 711.783 86.0419 711.397 86.0419C711.011 86.0419 710.698 86.358 710.698 86.748C710.698 87.1379 711.011 87.4541 711.397 87.4541Z" fill="#8643DC"/>
<path d="M707.902 90.9846C708.288 90.9846 708.601 90.6685 708.601 90.2785C708.601 89.8885 708.288 89.5724 707.902 89.5724C707.516 89.5724 707.203 89.8885 707.203 90.2785C707.203 90.6685 707.516 90.9846 707.902 90.9846Z" fill="#8643DC"/>
<path d="M704.232 94.5154C704.618 94.5154 704.931 94.1992 704.931 93.8093C704.931 93.4193 704.618 93.1031 704.232 93.1031C703.846 93.1031 703.533 93.4193 703.533 93.8093C703.533 94.1992 703.846 94.5154 704.232 94.5154Z" fill="#8643DC"/>
<path d="M700.737 98.0459C701.123 98.0459 701.436 97.7297 701.436 97.3398C701.436 96.9498 701.123 96.6337 700.737 96.6337C700.351 96.6337 700.038 96.9498 700.038 97.3398C700.038 97.7297 700.351 98.0459 700.737 98.0459Z" fill="#8643DC"/>
<path d="M697.067 101.577C697.453 101.577 697.766 101.26 697.766 100.87C697.766 100.48 697.453 100.164 697.067 100.164C696.681 100.164 696.368 100.48 696.368 100.87C696.368 101.26 696.681 101.577 697.067 101.577Z" fill="#8643DC"/>
<path d="M693.571 105.107C693.958 105.107 694.271 104.791 694.271 104.401C694.271 104.011 693.958 103.695 693.571 103.695C693.185 103.695 692.872 104.011 692.872 104.401C692.872 104.791 693.185 105.107 693.571 105.107Z" fill="#8643DC"/>
<path d="M689.902 108.638C690.288 108.638 690.601 108.321 690.601 107.931C690.601 107.541 690.288 107.225 689.902 107.225C689.515 107.225 689.202 107.541 689.202 107.931C689.202 108.321 689.515 108.638 689.902 108.638Z" fill="#8643DC"/>
<path d="M686.406 112.168C686.792 112.168 687.105 111.852 687.105 111.462C687.105 111.072 686.792 110.756 686.406 110.756C686.02 110.756 685.707 111.072 685.707 111.462C685.707 111.852 686.02 112.168 686.406 112.168Z" fill="#8643DC"/>
<path d="M682.736 115.699C683.122 115.699 683.435 115.382 683.435 114.992C683.435 114.603 683.122 114.286 682.736 114.286C682.35 114.286 682.037 114.603 682.037 114.992C682.037 115.382 682.35 115.699 682.736 115.699Z" fill="#8643DC"/>
<path d="M737.087 70.5074C737.473 70.5074 737.786 70.1913 737.786 69.8013C737.786 69.4113 737.473 69.0952 737.087 69.0952C736.701 69.0952 736.388 69.4113 736.388 69.8013C736.388 70.1913 736.701 70.5074 737.087 70.5074Z" fill="#8643DC"/>
<path d="M733.417 74.0381C733.803 74.0381 734.116 73.7219 734.116 73.332C734.116 72.942 733.803 72.6259 733.417 72.6259C733.031 72.6259 732.718 72.942 732.718 73.332C732.718 73.7219 733.031 74.0381 733.417 74.0381Z" fill="#8643DC"/>
<path d="M729.922 77.5686C730.308 77.5686 730.621 77.2524 730.621 76.8625C730.621 76.4725 730.308 76.1564 729.922 76.1564C729.536 76.1564 729.223 76.4725 729.223 76.8625C729.223 77.2524 729.536 77.5686 729.922 77.5686Z" fill="#8643DC"/>
<path d="M726.252 81.0992C726.638 81.0992 726.951 80.7831 726.951 80.3931C726.951 80.0031 726.638 79.687 726.252 79.687C725.866 79.687 725.553 80.0031 725.553 80.3931C725.553 80.7831 725.866 81.0992 726.252 81.0992Z" fill="#8643DC"/>
<path d="M722.757 84.6297C723.143 84.6297 723.456 84.3136 723.456 83.9236C723.456 83.5337 723.143 83.2175 722.757 83.2175C722.371 83.2175 722.058 83.5337 722.058 83.9236C722.058 84.3136 722.371 84.6297 722.757 84.6297Z" fill="#8643DC"/>
<path d="M719.087 88.1603C719.473 88.1603 719.786 87.8441 719.786 87.4541C719.786 87.0642 719.473 86.748 719.087 86.748C718.701 86.748 718.388 87.0642 718.388 87.4541C718.388 87.8441 718.701 88.1603 719.087 88.1603Z" fill="#8643DC"/>
<path d="M715.591 91.6908C715.978 91.6908 716.291 91.3746 716.291 90.9847C716.291 90.5947 715.978 90.2786 715.591 90.2786C715.205 90.2786 714.892 90.5947 714.892 90.9847C714.892 91.3746 715.205 91.6908 715.591 91.6908Z" fill="#8643DC"/>
<path d="M711.921 95.2215C712.307 95.2215 712.62 94.9054 712.62 94.5154C712.62 94.1255 712.307 93.8093 711.921 93.8093C711.535 93.8093 711.222 94.1255 711.222 94.5154C711.222 94.9054 711.535 95.2215 711.921 95.2215Z" fill="#8643DC"/>
<path d="M708.426 98.7522C708.812 98.7522 709.125 98.436 709.125 98.0461C709.125 97.6561 708.812 97.34 708.426 97.34C708.04 97.34 707.727 97.6561 707.727 98.0461C707.727 98.436 708.04 98.7522 708.426 98.7522Z" fill="#8643DC"/>
<path d="M704.756 102.283C705.142 102.283 705.455 101.967 705.455 101.577C705.455 101.187 705.142 100.87 704.756 100.87C704.37 100.87 704.057 101.187 704.057 101.577C704.057 101.967 704.37 102.283 704.756 102.283Z" fill="#8643DC"/>
<path d="M701.261 105.813C701.647 105.813 701.96 105.497 701.96 105.107C701.96 104.717 701.647 104.401 701.261 104.401C700.875 104.401 700.562 104.717 700.562 105.107C700.562 105.497 700.875 105.813 701.261 105.813Z" fill="#8643DC"/>
<path d="M697.591 109.344C697.977 109.344 698.29 109.028 698.29 108.638C698.29 108.248 697.977 107.932 697.591 107.932C697.205 107.932 696.892 108.248 696.892 108.638C696.892 109.028 697.205 109.344 697.591 109.344Z" fill="#8643DC"/>
<path d="M694.096 112.874C694.482 112.874 694.795 112.558 694.795 112.168C694.795 111.778 694.482 111.462 694.096 111.462C693.71 111.462 693.397 111.778 693.397 112.168C693.397 112.558 693.71 112.874 694.096 112.874Z" fill="#8643DC"/>
<path d="M690.426 116.581C690.812 116.581 691.125 116.265 691.125 115.875C691.125 115.485 690.812 115.169 690.426 115.169C690.04 115.169 689.727 115.485 689.727 115.875C689.727 116.265 690.04 116.581 690.426 116.581Z" fill="#8643DC"/>
<path d="M686.931 120.112C687.317 120.112 687.63 119.796 687.63 119.406C687.63 119.016 687.317 118.7 686.931 118.7C686.545 118.7 686.232 119.016 686.232 119.406C686.232 119.796 686.545 120.112 686.931 120.112Z" fill="#8643DC"/>
<path d="M741.282 74.7441C741.668 74.7441 741.981 74.428 741.981 74.038C741.981 73.648 741.668 73.3319 741.282 73.3319C740.895 73.3319 740.583 73.648 740.583 74.038C740.583 74.428 740.895 74.7441 741.282 74.7441Z" fill="#8643DC"/>
<path d="M737.612 78.2746C737.998 78.2746 738.311 77.9585 738.311 77.5685C738.311 77.1786 737.998 76.8624 737.612 76.8624C737.225 76.8624 736.912 77.1786 736.912 77.5685C736.912 77.9585 737.225 78.2746 737.612 78.2746Z" fill="#8643DC"/>
<path d="M734.116 81.8051C734.502 81.8051 734.815 81.489 734.815 81.099C734.815 80.7091 734.502 80.3929 734.116 80.3929C733.73 80.3929 733.417 80.7091 733.417 81.099C733.417 81.489 733.73 81.8051 734.116 81.8051Z" fill="#8643DC"/>
<path d="M730.446 85.3357C730.832 85.3357 731.145 85.0195 731.145 84.6296C731.145 84.2396 730.832 83.9235 730.446 83.9235C730.06 83.9235 729.747 84.2396 729.747 84.6296C729.747 85.0195 730.06 85.3357 730.446 85.3357Z" fill="#8643DC"/>
<path d="M726.951 88.8663C727.337 88.8663 727.65 88.5502 727.65 88.1602C727.65 87.7702 727.337 87.4541 726.951 87.4541C726.565 87.4541 726.252 87.7702 726.252 88.1602C726.252 88.5502 726.565 88.8663 726.951 88.8663Z" fill="#8643DC"/>
<path d="M723.281 92.3968C723.667 92.3968 723.98 92.0807 723.98 91.6907C723.98 91.3007 723.667 90.9846 723.281 90.9846C722.895 90.9846 722.582 91.3007 722.582 91.6907C722.582 92.0807 722.895 92.3968 723.281 92.3968Z" fill="#8643DC"/>
<path d="M719.611 95.9273C719.997 95.9273 720.31 95.6112 720.31 95.2212C720.31 94.8313 719.997 94.5151 719.611 94.5151C719.225 94.5151 718.912 94.8313 718.912 95.2212C718.912 95.6112 719.225 95.9273 719.611 95.9273Z" fill="#8643DC"/>
<path d="M716.116 99.4579C716.502 99.4579 716.815 99.1417 716.815 98.7518C716.815 98.3618 716.502 98.0457 716.116 98.0457C715.73 98.0457 715.417 98.3618 715.417 98.7518C715.417 99.1417 715.73 99.4579 716.116 99.4579Z" fill="#8643DC"/>
<path d="M712.446 102.989C712.832 102.989 713.145 102.672 713.145 102.283C713.145 101.893 712.832 101.576 712.446 101.576C712.06 101.576 711.747 101.893 711.747 102.283C711.747 102.672 712.06 102.989 712.446 102.989Z" fill="#8643DC"/>
<path d="M708.951 106.519C709.337 106.519 709.65 106.203 709.65 105.813C709.65 105.423 709.337 105.107 708.951 105.107C708.565 105.107 708.252 105.423 708.252 105.813C708.252 106.203 708.565 106.519 708.951 106.519Z" fill="#8643DC"/>
<path d="M705.281 110.05C705.667 110.05 705.98 109.734 705.98 109.344C705.98 108.954 705.667 108.638 705.281 108.638C704.895 108.638 704.582 108.954 704.582 109.344C704.582 109.734 704.895 110.05 705.281 110.05Z" fill="#8643DC"/>
<path d="M701.785 113.757C702.171 113.757 702.484 113.441 702.484 113.051C702.484 112.661 702.171 112.345 701.785 112.345C701.399 112.345 701.086 112.661 701.086 113.051C701.086 113.441 701.399 113.757 701.785 113.757Z" fill="#8643DC"/>
<path d="M698.115 117.287C698.501 117.287 698.814 116.971 698.814 116.581C698.814 116.191 698.501 115.875 698.115 115.875C697.729 115.875 697.416 116.191 697.416 116.581C697.416 116.971 697.729 117.287 698.115 117.287Z" fill="#8643DC"/>
<path d="M694.62 120.818C695.006 120.818 695.319 120.502 695.319 120.112C695.319 119.722 695.006 119.406 694.62 119.406C694.234 119.406 693.921 119.722 693.921 120.112C693.921 120.502 694.234 120.818 694.62 120.818Z" fill="#8643DC"/>
<path d="M690.95 124.348C691.336 124.348 691.649 124.032 691.649 123.642C691.649 123.252 691.336 122.936 690.95 122.936C690.564 122.936 690.251 123.252 690.251 123.642C690.251 124.032 690.564 124.348 690.95 124.348Z" fill="#8643DC"/>
<path d="M745.301 78.9807C745.687 78.9807 746 78.6646 746 78.2746C746 77.8846 745.687 77.5685 745.301 77.5685C744.915 77.5685 744.602 77.8846 744.602 78.2746C744.602 78.6646 744.915 78.9807 745.301 78.9807Z" fill="#8643DC"/>
<path d="M741.806 82.5114C742.192 82.5114 742.505 82.1952 742.505 81.8052C742.505 81.4152 742.192 81.0991 741.806 81.0991C741.42 81.0991 741.107 81.4152 741.107 81.8052C741.107 82.1952 741.42 82.5114 741.806 82.5114Z" fill="#8643DC"/>
<path d="M738.136 86.0419C738.522 86.0419 738.835 85.7257 738.835 85.3357C738.835 84.9458 738.522 84.6296 738.136 84.6296C737.75 84.6296 737.437 84.9458 737.437 85.3357C737.437 85.7257 737.75 86.0419 738.136 86.0419Z" fill="#8643DC"/>
<path d="M734.641 89.5724C735.027 89.5724 735.34 89.2562 735.34 88.8663C735.34 88.4763 735.027 88.1602 734.641 88.1602C734.255 88.1602 733.942 88.4763 733.942 88.8663C733.942 89.2562 734.255 89.5724 734.641 89.5724Z" fill="#8643DC"/>
<path d="M730.971 93.1029C731.357 93.1029 731.67 92.7868 731.67 92.3968C731.67 92.0068 731.357 91.6907 730.971 91.6907C730.584 91.6907 730.271 92.0068 730.271 92.3968C730.271 92.7868 730.584 93.1029 730.971 93.1029Z" fill="#8643DC"/>
<path d="M727.475 96.6334C727.861 96.6334 728.174 96.3173 728.174 95.9273C728.174 95.5373 727.861 95.2212 727.475 95.2212C727.089 95.2212 726.776 95.5373 726.776 95.9273C726.776 96.3173 727.089 96.6334 727.475 96.6334Z" fill="#8643DC"/>
<path d="M723.805 100.164C724.191 100.164 724.504 99.8479 724.504 99.4579C724.504 99.068 724.191 98.7518 723.805 98.7518C723.419 98.7518 723.106 99.068 723.106 99.4579C723.106 99.8479 723.419 100.164 723.805 100.164Z" fill="#8643DC"/>
<path d="M720.31 103.695C720.696 103.695 721.009 103.378 721.009 102.988C721.009 102.598 720.696 102.282 720.31 102.282C719.924 102.282 719.611 102.598 719.611 102.988C719.611 103.378 719.924 103.695 720.31 103.695Z" fill="#8643DC"/>
<path d="M716.64 107.225C717.026 107.225 717.339 106.909 717.339 106.519C717.339 106.129 717.026 105.813 716.64 105.813C716.254 105.813 715.941 106.129 715.941 106.519C715.941 106.909 716.254 107.225 716.64 107.225Z" fill="#8643DC"/>
<path d="M713.145 110.932C713.531 110.932 713.844 110.616 713.844 110.226C713.844 109.836 713.531 109.52 713.145 109.52C712.759 109.52 712.446 109.836 712.446 110.226C712.446 110.616 712.759 110.932 713.145 110.932Z" fill="#8643DC"/>
<path d="M709.475 114.463C709.861 114.463 710.174 114.147 710.174 113.757C710.174 113.367 709.861 113.051 709.475 113.051C709.089 113.051 708.776 113.367 708.776 113.757C708.776 114.147 709.089 114.463 709.475 114.463Z" fill="#8643DC"/>
<path d="M705.805 117.994C706.191 117.994 706.504 117.677 706.504 117.287C706.504 116.897 706.191 116.581 705.805 116.581C705.419 116.581 705.106 116.897 705.106 117.287C705.106 117.677 705.419 117.994 705.805 117.994Z" fill="#8643DC"/>
<path d="M702.31 121.524C702.696 121.524 703.009 121.208 703.009 120.818C703.009 120.428 702.696 120.112 702.31 120.112C701.924 120.112 701.611 120.428 701.611 120.818C701.611 121.208 701.924 121.524 702.31 121.524Z" fill="#8643DC"/>
<path d="M698.64 125.055C699.026 125.055 699.339 124.738 699.339 124.348C699.339 123.958 699.026 123.642 698.64 123.642C698.254 123.642 697.941 123.958 697.941 124.348C697.941 124.738 698.254 125.055 698.64 125.055Z" fill="#8643DC"/>
<path d="M695.144 128.585C695.53 128.585 695.843 128.269 695.843 127.879C695.843 127.489 695.53 127.173 695.144 127.173C694.758 127.173 694.445 127.489 694.445 127.879C694.445 128.269 694.758 128.585 695.144 128.585Z" fill="#8643DC"/>
<path d="M636.599 432.492L635.871 431.534L625.282 439.745L626.01 440.703L636.599 432.492Z" fill="#09E6DF"/>
<path d="M635.433 441.093L627.304 430.396L626.355 431.132L634.484 441.828L635.433 441.093Z" fill="#09E6DF"/>
<path d="M716.764 137.173L716.036 136.215L705.446 144.426L706.174 145.384L716.764 137.173Z" fill="#8643DC"/>
<path d="M715.597 145.774L707.468 135.077L706.52 135.812L714.649 146.509L715.597 145.774Z" fill="#8643DC"/>
<path d="M61.6943 7.81896C63.4734 8.12635 65.1624 6.91868 65.4667 5.12155C65.771 3.32442 64.5754 1.61837 62.7963 1.31098C61.0171 1.00359 59.3282 2.21125 59.0238 4.00838C58.7195 5.80551 59.9151 7.51156 61.6943 7.81896Z" fill="#FF59C1"/>
<path d="M157.891 551.778C159.671 552.085 161.36 550.878 161.664 549.081C161.968 547.283 160.773 545.577 158.993 545.27C157.214 544.963 155.525 546.17 155.221 547.967C154.917 549.764 156.112 551.471 157.891 551.778Z" fill="#8643DC"/>
<path d="M556.827 92.6041C558.606 92.9115 560.295 91.7038 560.599 89.9067C560.904 88.1096 559.708 86.4035 557.929 86.0961C556.15 85.7887 554.461 86.9964 554.157 88.7935C553.852 90.5907 555.048 92.2967 556.827 92.6041Z" fill="#43DC77"/>
</svg>
